<mxfile>
  <diagram id="C5R143Li0aA1-3KioK6u" name="Программа анализа треугольника">
    <mxGraphModel dx="1426" dy="802" grid="1" gridSize="10" guides="1" tooltips="1" connect="1" arrows="1" fold="1" page="1" pageScale="1" pageWidth="827" pageHeight="1169" math="0" shadow="0">
      <root>
        <mxCell id="0"/>
        <mxCell id="1" parent="0"/>

        <!-- Начало программы -->
        <mxCell id="start" value="Запуск программы" style="rounded=0;whiteSpace=wrap;html=1;" vertex="1" parent="1">
          <mxGeometry x="400" y="20" width="120" height="60" as="geometry"/>
        </mxCell>

        <!-- Инициализация UI -->
        <mxCell id="init_ui" value="Инициализация графического интерфейса" style="rounded=0;whiteSpace=wrap;html=1;" vertex="1" parent="1">
          <mxGeometry x="380" y="100" width="160" height="60" as="geometry"/>
        </mxCell>

        <!-- Загрузка файлов -->
        <mxCell id="load_files" value="Сканирование папки storage\nи загрузка списка файлов" style="rounded=0;whiteSpace=wrap;html=1;" vertex="1" parent="1">
          <mxGeometry x="380" y="180" width="160" height="80" as="geometry"/>
        </mxCell>

        <!-- Ожидание выбора -->
        <mxCell id="wait" value="Ожидание выбора файла\nпользователем" style="rounded=0;whiteSpace=wrap;html=1;" vertex="1" parent="1">
          <mxGeometry x="380" y="280" width="160" height="60" as="geometry"/>
        </mxCell>

        <!-- Чтение файла -->
        <mxCell id="read" value="Попытка чтения выбранного файла" style="rhombus;whiteSpace=wrap;html=1;" vertex="1" parent="1">
          <mxGeometry x="380" y="360" width="160" height="80" as="geometry"/>
        </mxCell>

        <!-- Ошибка? -->
        <mxCell id="error_check" value="Ошибка\nчтения?" style="rhombus;whiteSpace=wrap;html=1;" vertex="1" parent="1">
          <mxGeometry x="380" y="460" width="160" height="80" as="geometry"/>
        </mxCell>

        <!-- Отображение ошибки -->
        <mxCell id="show_error" value="Показать сообщение\nоб ошибке" style="rounded=0;whiteSpace=wrap;html=1;" vertex="1" parent="1">
          <mxGeometry x="200" y="560" width="160" height="60" as="geometry"/>
        </mxCell>

        <!-- Анализ данных -->
        <mxCell id="analyze" value="Анализ данных треугольника:\n- Расчет сторон\n- Углов\n- Высот\n- Радиуса окружности" style="rounded=0;whiteSpace=wrap;html=1;" vertex="1" parent="1">
          <mxGeometry x="380" y="560" width="160" height="100" as="geometry"/>
        </mxCell>

        <!-- Отрисовка -->
        <mxCell id="draw" value="Отрисовка треугольника\nи вывод информации" style="rounded=0;whiteSpace=wrap;html=1;" vertex="1" parent="1">
          <mxGeometry x="380" y="680" width="160" height="80" as="geometry"/>
        </mxCell>

        <!-- Конец -->
        <mxCell id="end" value="Завершение работы" style="rounded=0;whiteSpace=wrap;html=1;" vertex="1" parent="1">
          <mxGeometry x="380" y="780" width="160" height="60" as="geometry"/>
        </mxCell>

        <!-- Соединения -->
        <mxCell id="c1" style="edgeStyle=orthogonalEdgeStyle;rounded=0;html=1;entryX=0.5;entryY=0;exitX=0.5;exitY=1;" edge="1" parent="1" source="start" target="init_ui"/>
        <mxCell id="c2" style="edgeStyle=orthogonalEdgeStyle;rounded=0;html=1;" edge="1" parent="1" source="init_ui" target="load_files"/>
        <mxCell id="c3" style="edgeStyle=orthogonalEdgeStyle;rounded=0;html=1;" edge="1" parent="1" source="load_files" target="wait"/>
        <mxCell id="c4" style="edgeStyle=orthogonalEdgeStyle;rounded=0;html=1;" edge="1" parent="1" source="wait" target="read"/>
        <mxCell id="c5" style="edgeStyle=orthogonalEdgeStyle;rounded=0;html=1;" edge="1" parent="1" source="read" target="error_check"/>
        <mxCell id="c6" style="edgeStyle=orthogonalEdgeStyle;rounded=0;html=1;exitX=0.25;exitY=1;entryX=0.5;entryY=0;" edge="1" parent="1" source="error_check" target="show_error">
          <mxGeometry relative="1" as="geometry">
            <mxPoint x="300" y="560" as="targetPoint"/>
          </mxGeometry>
        </mxCell>
        <mxCell id="c7" style="edgeStyle=orthogonalEdgeStyle;rounded=0;html=1;exitX=0.75;exitY=1;entryX=0.5;entryY=0;" edge="1" parent="1" source="error_check" target="analyze"/>
        <mxCell id="c8" style="edgeStyle=orthogonalEdgeStyle;rounded=0;html=1;" edge="1" parent="1" source="analyze" target="draw"/>
        <mxCell id="c9" style="edgeStyle=orthogonalEdgeStyle;rounded=0;html=1;exitX=0.5;exitY=1;entryX=0.5;entryY=0;" edge="1" parent="1" source="draw" target="end"/>
        <mxCell id="c10" style="edgeStyle=orthogonalEdgeStyle;rounded=0;html=1;exitX=0.5;exitY=1;entryX=0.5;entryY=0;dashed=1;" edge="1" parent="1" source="show_error" target="wait"/>
      </root>
    </mxGraphModel>
  </diagram>
</mxfile>